<svg width="15" height="15" viewBox="0 0 15 15" fill="none" xmlns="http://www.w3.org/2000/svg">
<path d="M8.40905 0.430605C7.93897 -0.143536 7.06097 -0.143534 6.59095 0.430605L5.92506 1.24392C5.87942 1.29966 5.80329 1.32006 5.73589 1.2946L4.75256 0.923191C4.05842 0.661007 3.29805 1.1 3.17803 1.83225L3.00802 2.86954C2.99637 2.94064 2.94064 2.99637 2.86954 3.00802L1.83225 3.17803C1.10001 3.29805 0.661001 4.05841 0.923191 4.75256L1.2946 5.73589C1.32006 5.80329 1.29966 5.87942 1.24392 5.92506L0.430605 6.59092C-0.143536 7.061 -0.143534 7.939 0.430605 8.40908L1.24392 9.07493C1.29966 9.12058 1.32006 9.19671 1.2946 9.26412L0.923191 10.2475C0.661007 10.9416 1.1 11.7019 1.83225 11.822L2.86954 11.992C2.94064 12.0036 2.99637 12.0594 3.00802 12.1305L3.17803 13.1677C3.29805 13.9 4.05841 14.339 4.75256 14.0768L5.73589 13.7054C5.80329 13.68 5.87942 13.7003 5.92506 13.7561L6.59095 14.5694C7.06097 15.1435 7.93897 15.1435 8.40905 14.5694L9.0749 13.7561C9.12055 13.7003 9.19668 13.68 9.26408 13.7054L10.2474 14.0768C10.9416 14.339 11.702 13.9 11.8219 13.1677L11.992 12.1305C12.0036 12.0594 12.0593 12.0036 12.1304 11.992L13.1677 11.822C13.9 11.7019 14.339 10.9416 14.0768 10.2475L13.7054 9.26412C13.6799 9.19671 13.7003 9.12058 13.756 9.07493L14.5694 8.40908C15.1435 7.939 15.1435 7.061 14.5694 6.59092L13.756 5.92506C13.7003 5.87942 13.6799 5.80329 13.7054 5.73589L14.0768 4.75256C14.339 4.05841 13.9 3.29805 13.1677 3.17803L12.1304 3.00802C12.0593 2.99637 12.0036 2.94064 11.992 2.86954L11.8219 1.83225C11.702 1.10001 10.9416 0.661 10.2474 0.923191L9.26408 1.2946C9.19668 1.32006 9.12055 1.29966 9.0749 1.24392L8.40905 0.430605Z" fill="#3D88E0"/>
<path fill-rule="evenodd" clip-rule="evenodd" d="M11.5481 4.79422C11.7447 4.99085 11.7447 5.30967 11.5481 5.5063L6.84863 10.2058C6.75424 10.3002 6.62614 10.3533 6.49261 10.3533C6.35908 10.3533 6.23098 10.3002 6.13657 10.2058L3.45115 7.52034C3.25452 7.3237 3.25452 7.00494 3.45115 6.8083C3.64778 6.61166 3.9666 6.61166 4.16323 6.8083L6.49261 9.13763L10.8361 4.79422C11.0327 4.59759 11.3515 4.59759 11.5481 4.79422Z" fill="white"/>
</svg>
