<svg width="19" height="19" viewBox="0 0 19 19" fill="none" xmlns="http://www.w3.org/2000/svg">
<path d="M10.6515 0.545433C10.056 -0.181812 8.94389 -0.18181 8.34854 0.545433L7.50507 1.57563C7.44726 1.64624 7.35083 1.67208 7.26546 1.63983L6.01991 1.16938C5.14066 0.837276 4.17753 1.39333 4.0255 2.32085L3.81016 3.63475C3.7954 3.72481 3.72481 3.7954 3.63474 3.81016L2.32085 4.0255C1.39334 4.17753 0.837267 5.14065 1.16938 6.01991L1.63983 7.26546C1.67208 7.35083 1.64624 7.44726 1.57563 7.50507L0.545433 8.3485C-0.181812 8.94393 -0.18181 10.0561 0.545433 10.6515L1.57563 11.4949C1.64624 11.5527 1.67208 11.6492 1.63983 11.7345L1.16938 12.9801C0.837276 13.8593 1.39333 14.8225 2.32085 14.9745L3.63474 15.1898C3.72481 15.2046 3.7954 15.2752 3.81016 15.3653L4.0255 16.6791C4.17753 17.6066 5.14065 18.1627 6.01991 17.8306L7.26546 17.3602C7.35083 17.3279 7.44726 17.3537 7.50507 17.4244L8.34854 18.4545C8.94389 19.1818 10.056 19.1818 10.6515 18.4545L11.4949 17.4244C11.5527 17.3537 11.6491 17.3279 11.7345 17.3602L12.9801 17.8306C13.8594 18.1627 14.8225 17.6066 14.9745 16.6791L15.1899 15.3653C15.2046 15.2752 15.2752 15.2046 15.3652 15.1898L16.6791 14.9745C17.6067 14.8225 18.1627 13.8593 17.8306 12.9801L17.3601 11.7345C17.3279 11.6492 17.3537 11.5527 17.4243 11.4949L18.4546 10.6515C19.1818 10.0561 19.1818 8.94393 18.4546 8.3485L17.4243 7.50507C17.3537 7.44726 17.3279 7.35083 17.3601 7.26546L17.8306 6.01991C18.1627 5.14065 17.6067 4.17753 16.6791 4.0255L15.3652 3.81016C15.2752 3.7954 15.2046 3.72481 15.1899 3.63475L14.9745 2.32085C14.8225 1.39334 13.8594 0.837267 12.9801 1.16938L11.7345 1.63983C11.6491 1.67208 11.5527 1.64624 11.4949 1.57563L10.6515 0.545433Z" fill="#3D88E0"/>
<path fill-rule="evenodd" clip-rule="evenodd" d="M14.6276 6.07263C14.8767 6.32169 14.8767 6.72552 14.6276 6.97459L8.6749 12.9272C8.55534 13.0469 8.39309 13.1141 8.22395 13.1141C8.05481 13.1141 7.89255 13.0469 7.77296 12.9272L4.37144 9.52571C4.12237 9.27664 4.12237 8.87287 4.37144 8.6238C4.6205 8.37472 5.02433 8.37472 5.2734 8.6238L8.22395 11.5743L13.7257 6.07263C13.9747 5.82356 14.3785 5.82356 14.6276 6.07263Z" fill="white"/>
</svg>
