<svg width="16" height="16" viewBox="0 0 16 16" fill="none" xmlns="http://www.w3.org/2000/svg">
<g clip-path="url(#clip0_1_6324)">
<path d="M6 8.00004C7.28667 8.00004 8.33334 6.95337 8.33334 5.66671C8.33334 4.38004 7.28667 3.33337 6 3.33337C4.71334 3.33337 3.66667 4.38004 3.66667 5.66671C3.66667 6.95337 4.71334 8.00004 6 8.00004ZM6 4.66671C6.55334 4.66671 7 5.11337 7 5.66671C7 6.22004 6.55334 6.66671 6 6.66671C5.44667 6.66671 5 6.22004 5 5.66671C5 5.11337 5.44667 4.66671 6 4.66671ZM6 9.16671C4.44 9.16671 1.33334 9.94671 1.33334 11.5V12C1.33334 12.3667 1.63334 12.6667 2 12.6667H10C10.3667 12.6667 10.6667 12.3667 10.6667 12V11.5C10.6667 9.94671 7.56 9.16671 6 9.16671ZM2.89334 11.3334C3.45334 10.9467 4.80667 10.5 6 10.5C7.19334 10.5 8.54667 10.9467 9.10667 11.3334H2.89334ZM10.6933 9.20671C11.4667 9.76671 12 10.5134 12 11.5V12.6667H14C14.3667 12.6667 14.6667 12.3667 14.6667 12V11.5C14.6667 10.1534 12.3333 9.38671 10.6933 9.20671ZM10 8.00004C11.2867 8.00004 12.3333 6.95337 12.3333 5.66671C12.3333 4.38004 11.2867 3.33337 10 3.33337C9.64 3.33337 9.30667 3.42004 9 3.56671C9.42 4.16004 9.66667 4.88671 9.66667 5.66671C9.66667 6.44671 9.42 7.17337 9 7.76671C9.30667 7.91337 9.64 8.00004 10 8.00004Z" fill="#6F747A"/>
</g>
<defs>
<clipPath id="clip0_1_6324">
<rect width="16" height="16" fill="white"/>
</clipPath>
</defs>
</svg>
