<svg width="20" height="20" viewBox="0 0 20 20" fill="none" xmlns="http://www.w3.org/2000/svg">
<path d="M6.66667 2.5H5C4.67182 2.50005 4.34688 2.56494 4.04384 2.69093C3.74081 2.81692 3.46565 3.00153 3.23417 3.23417C3.00153 3.46565 2.81692 3.74081 2.69093 4.04384C2.56494 4.34688 2.50005 4.67182 2.5 5V6.66667C2.5 7.35417 2.78083 7.97917 3.23417 8.4325C3.46565 8.66513 3.74081 8.84975 4.04384 8.97574C4.34688 9.10173 4.67182 9.16661 5 9.16667H6.66667C6.99485 9.16661 7.31979 9.10173 7.62282 8.97574C7.92586 8.84975 8.20102 8.66513 8.4325 8.4325C8.66513 8.20102 8.84975 7.92586 8.97574 7.62282C9.10173 7.31979 9.16661 6.99485 9.16667 6.66667V5C9.16661 4.67182 9.10173 4.34688 8.97574 4.04384C8.84975 3.74081 8.66513 3.46565 8.4325 3.23417C8.20102 3.00153 7.92586 2.81692 7.62282 2.69093C7.31979 2.56494 6.99485 2.50005 6.66667 2.5ZM15 2.5H13.3333C13.0052 2.50005 12.6802 2.56494 12.3772 2.69093C12.0741 2.81692 11.799 3.00153 11.5675 3.23417C11.3349 3.46565 11.1503 3.74081 11.0243 4.04384C10.8983 4.34688 10.8334 4.67182 10.8333 5V6.66667C10.8333 7.35417 11.1142 7.97917 11.5675 8.4325C11.799 8.66513 12.0741 8.84975 12.3772 8.97574C12.6802 9.10173 13.0052 9.16661 13.3333 9.16667H15C15.3282 9.16661 15.6531 9.10173 15.9562 8.97574C16.2592 8.84975 16.5343 8.66513 16.7658 8.4325C16.9985 8.20102 17.1831 7.92586 17.3091 7.62282C17.4351 7.31979 17.4999 6.99485 17.5 6.66667V5C17.4999 4.67182 17.4351 4.34688 17.3091 4.04384C17.1831 3.74081 16.9985 3.46565 16.7658 3.23417C16.5343 3.00153 16.2592 2.81692 15.9562 2.69093C15.6531 2.56494 15.3282 2.50005 15 2.5ZM6.66667 10.8333H5C4.67182 10.8334 4.34688 10.8983 4.04384 11.0243C3.74081 11.1503 3.46565 11.3349 3.23417 11.5675C3.00153 11.799 2.81692 12.0741 2.69093 12.3772C2.56494 12.6802 2.50005 13.0052 2.5 13.3333V15C2.5 15.6875 2.78083 16.3125 3.23417 16.7658C3.46565 16.9985 3.74081 17.1831 4.04384 17.3091C4.34688 17.4351 4.67182 17.4999 5 17.5H6.66667C6.99485 17.4999 7.31979 17.4351 7.62282 17.3091C7.92586 17.1831 8.20102 16.9985 8.4325 16.7658C8.66513 16.5343 8.84975 16.2592 8.97574 15.9562C9.10173 15.6531 9.16661 15.3282 9.16667 15V13.3333C9.16661 13.0052 9.10173 12.6802 8.97574 12.3772C8.84975 12.0741 8.66513 11.799 8.4325 11.5675C8.20102 11.3349 7.92586 11.1503 7.62282 11.0243C7.31979 10.8983 6.99485 10.8334 6.66667 10.8333ZM15 10.8333H13.3333C13.0052 10.8334 12.6802 10.8983 12.3772 11.0243C12.0741 11.1503 11.799 11.3349 11.5675 11.5675C11.3349 11.799 11.1503 12.0741 11.0243 12.3772C10.8983 12.6802 10.8334 13.0052 10.8333 13.3333V15C10.8333 15.6875 11.1142 16.3125 11.5675 16.7658C11.799 16.9985 12.0741 17.1831 12.3772 17.3091C12.6802 17.4351 13.0052 17.4999 13.3333 17.5H15C15.3282 17.4999 15.6531 17.4351 15.9562 17.3091C16.2592 17.1831 16.5343 16.9985 16.7658 16.7658C16.9985 16.5343 17.1831 16.2592 17.3091 15.9562C17.4351 15.6531 17.4999 15.3282 17.5 15V13.3333C17.4999 13.0052 17.4351 12.6802 17.3091 12.3772C17.1831 12.0741 16.9985 11.799 16.7658 11.5675C16.5343 11.3349 16.2592 11.1503 15.9562 11.0243C15.6531 10.8983 15.3282 10.8334 15 10.8333Z" fill="#390D72"/>
</svg>
