<svg width="16" height="16" viewBox="0 0 16 16" fill="none" xmlns="http://www.w3.org/2000/svg">
<g clip-path="url(#clip0_1_6318)">
<path d="M8.00001 1.33337C5.42001 1.33337 3.33334 3.42004 3.33334 6.00004C3.33334 9.50004 8.00001 14.6667 8.00001 14.6667C8.00001 14.6667 12.6667 9.50004 12.6667 6.00004C12.6667 3.42004 10.58 1.33337 8.00001 1.33337ZM4.66668 6.00004C4.66668 4.16004 6.16001 2.66671 8.00001 2.66671C9.84001 2.66671 11.3333 4.16004 11.3333 6.00004C11.3333 7.92004 9.41334 10.7934 8.00001 12.5867C6.61334 10.8067 4.66668 7.90004 4.66668 6.00004Z" fill="#6F747A"/>
<path d="M8.00001 7.66671C8.92048 7.66671 9.66668 6.92052 9.66668 6.00004C9.66668 5.07957 8.92048 4.33337 8.00001 4.33337C7.07954 4.33337 6.33334 5.07957 6.33334 6.00004C6.33334 6.92052 7.07954 7.66671 8.00001 7.66671Z" fill="#6F747A"/>
</g>
<defs>
<clipPath id="clip0_1_6318">
<rect width="16" height="16" fill="white"/>
</clipPath>
</defs>
</svg>
