<svg width="16" height="16" viewBox="0 0 16 16" fill="none" xmlns="http://www.w3.org/2000/svg">
<g clip-path="url(#clip0_1_6227)">
<path d="M9.33334 4V2.66667H6.66668V4H9.33334ZM2.66668 6V12C2.66668 12.3667 2.96668 12.6667 3.33334 12.6667H12.6667C13.0333 12.6667 13.3333 12.3667 13.3333 12V6C13.3333 5.63334 13.0333 5.33334 12.6667 5.33334H3.33334C2.96668 5.33334 2.66668 5.63334 2.66668 6ZM13.3333 4C14.0733 4 14.6667 4.59334 14.6667 5.33334V12.6667C14.6667 13.4067 14.0733 14 13.3333 14H2.66668C1.92668 14 1.33334 13.4067 1.33334 12.6667L1.34001 5.33334C1.34001 4.59334 1.92668 4 2.66668 4H5.33334V2.66667C5.33334 1.92667 5.92668 1.33334 6.66668 1.33334H9.33334C10.0733 1.33334 10.6667 1.92667 10.6667 2.66667V4H13.3333Z" fill="#6F747A"/>
</g>
<defs>
<clipPath id="clip0_1_6227">
<rect width="16" height="16" fill="white"/>
</clipPath>
</defs>
</svg>
