<svg width="16" height="16" viewBox="0 0 16 16" fill="none" xmlns="http://www.w3.org/2000/svg">
<path d="M13.5 3.5H2.5C2.10218 3.5 1.72064 3.65804 1.43934 3.93934C1.15804 4.22064 1 4.60218 1 5V11C1 11.3978 1.15804 11.7794 1.43934 12.0607C1.72064 12.342 2.10218 12.5 2.5 12.5H13.5C13.8978 12.5 14.2794 12.342 14.5607 12.0607C14.842 11.7794 15 11.3978 15 11V5C15 4.60218 14.842 4.22064 14.5607 3.93934C14.2794 3.65804 13.8978 3.5 13.5 3.5ZM14 9.04H13.965C13.8299 9.06565 13.6963 9.09904 13.565 9.14L13.495 9.165C13.38 9.21 13.265 9.255 13.155 9.31L13.1 9.34C12.9821 9.40226 12.8685 9.47242 12.76 9.55L12.69 9.605C12.4718 9.7682 12.2782 9.96183 12.115 10.18L12.06 10.25C11.9824 10.3585 11.9123 10.4721 11.85 10.59L11.82 10.65C11.7657 10.759 11.7173 10.8708 11.675 10.985C11.6689 11.0107 11.6606 11.0358 11.65 11.06C11.6085 11.1895 11.5751 11.3214 11.55 11.455C11.5516 11.4666 11.5516 11.4784 11.55 11.49H4.46C4.45836 11.4784 4.45836 11.4666 4.46 11.455C4.43494 11.3214 4.40154 11.1895 4.36 11.06C4.35787 11.035 4.35787 11.01 4.36 10.985C4.31774 10.8708 4.26933 10.759 4.215 10.65L4.15 10.6C4.08774 10.4821 4.01758 10.3685 3.94 10.26L3.885 10.19C3.7218 9.97183 3.52817 9.7782 3.31 9.615L3.24 9.56C3.13153 9.48242 3.01793 9.41226 2.9 9.35L2.845 9.32C2.735 9.265 2.62 9.22 2.505 9.175L2.435 9.15C2.30369 9.10904 2.17014 9.07565 2.035 9.05H2V6.96H2.035C2.17014 6.93435 2.30369 6.90096 2.435 6.86H2.505C2.62 6.815 2.735 6.77 2.845 6.715L2.9 6.685C3.01793 6.62274 3.13153 6.55258 3.24 6.475L3.31 6.42C3.52817 6.2568 3.7218 6.06317 3.885 5.845L3.94 5.775C4.01758 5.66653 4.08774 5.55293 4.15 5.435L4.18 5.375C4.23573 5.25299 4.28415 5.12777 4.325 5C4.32287 4.97505 4.32287 4.94995 4.325 4.925C4.36654 4.79555 4.39994 4.66362 4.425 4.53C4.42336 4.51839 4.42336 4.50661 4.425 4.495H11.54C11.5416 4.50661 11.5416 4.51839 11.54 4.53C11.5651 4.66362 11.5985 4.79555 11.64 4.925C11.6506 4.9492 11.6589 4.9743 11.665 5C11.7073 5.1142 11.7557 5.22603 11.81 5.335L11.84 5.395C11.9023 5.51293 11.9724 5.62653 12.05 5.735L12.105 5.805C12.2682 6.02317 12.4618 6.2168 12.68 6.38L12.75 6.435C12.8585 6.51258 12.9721 6.58274 13.09 6.645L13.145 6.675C13.255 6.73 13.37 6.775 13.485 6.82H13.555C13.6863 6.86096 13.8199 6.89435 13.955 6.92H13.99L14 9.04ZM10.5 8C10.5 8.49445 10.3534 8.9778 10.0787 9.38893C9.80397 9.80005 9.41352 10.1205 8.95671 10.3097C8.49989 10.4989 7.99723 10.5484 7.51227 10.452C7.02732 10.3555 6.58186 10.1174 6.23223 9.76777C5.8826 9.41814 5.6445 8.97268 5.54804 8.48773C5.45157 8.00277 5.50108 7.50011 5.6903 7.04329C5.87952 6.58648 6.19995 6.19603 6.61107 5.92133C7.0222 5.64662 7.50555 5.5 8 5.5C8.66304 5.5 9.29893 5.76339 9.76777 6.23223C10.2366 6.70107 10.5 7.33696 10.5 8Z" fill="#6F747A"/>
</svg>
