<svg width="16" height="16" viewBox="0 0 16 16" fill="none" xmlns="http://www.w3.org/2000/svg">
<g clip-path="url(#clip0_1_6321)">
<path d="M9.33333 4.00004V2.66671H6.66666V4.00004H9.33333ZM2.66666 6.00004V12C2.66666 12.3667 2.96666 12.6667 3.33333 12.6667H12.6667C13.0333 12.6667 13.3333 12.3667 13.3333 12V6.00004C13.3333 5.63337 13.0333 5.33337 12.6667 5.33337H3.33333C2.96666 5.33337 2.66666 5.63337 2.66666 6.00004ZM13.3333 4.00004C14.0733 4.00004 14.6667 4.59337 14.6667 5.33337V12.6667C14.6667 13.4067 14.0733 14 13.3333 14H2.66666C1.92666 14 1.33333 13.4067 1.33333 12.6667L1.33999 5.33337C1.33999 4.59337 1.92666 4.00004 2.66666 4.00004H5.33333V2.66671C5.33333 1.92671 5.92666 1.33337 6.66666 1.33337H9.33333C10.0733 1.33337 10.6667 1.92671 10.6667 2.66671V4.00004H13.3333Z" fill="#6F747A"/>
</g>
<defs>
<clipPath id="clip0_1_6321">
<rect width="16" height="16" fill="white"/>
</clipPath>
</defs>
</svg>
