<svg width="16" height="16" viewBox="0 0 16 16" fill="none" xmlns="http://www.w3.org/2000/svg">
<g clip-path="url(#clip0_1_6315)">
<path opacity="0.3" d="M8 7.33333H9.33333V8.66667H8V10H9.33333V11.3333H8V12.6667H13.3333V6H8V7.33333ZM10.6667 7.33333H12V8.66667H10.6667V7.33333ZM10.6667 10H12V11.3333H10.6667V10Z" fill="#6F747A"/>
<path d="M8.00001 4.66667V2H1.33334V14H14.6667V4.66667H8.00001ZM4.00001 12.6667H2.66668V11.3333H4.00001V12.6667ZM4.00001 10H2.66668V8.66667H4.00001V10ZM4.00001 7.33333H2.66668V6H4.00001V7.33333ZM4.00001 4.66667H2.66668V3.33333H4.00001V4.66667ZM6.66668 12.6667H5.33334V11.3333H6.66668V12.6667ZM6.66668 10H5.33334V8.66667H6.66668V10ZM6.66668 7.33333H5.33334V6H6.66668V7.33333ZM6.66668 4.66667H5.33334V3.33333H6.66668V4.66667ZM13.3333 12.6667H8.00001V11.3333H9.33334V10H8.00001V8.66667H9.33334V7.33333H8.00001V6H13.3333V12.6667ZM10.6667 7.33333H12V8.66667H10.6667V7.33333ZM10.6667 10H12V11.3333H10.6667V10Z" fill="#6F747A"/>
</g>
<defs>
<clipPath id="clip0_1_6315">
<rect width="16" height="16" fill="white"/>
</clipPath>
</defs>
</svg>
